<svg width="270" height="270" viewBox="0 0 270 270" fill="none" xmlns="http://www.w3.org/2000/svg">
<mask id="mask0_2028_21" style="mask-type:luminance" maskUnits="userSpaceOnUse" x="0" y="0" width="270" height="270">
<path d="M0 0H269.2V269.2H0V0Z" fill="white"/>
</mask>
<g mask="url(#mask0_2028_21)">
<mask id="mask1_2028_21" style="mask-type:luminance" maskUnits="userSpaceOnUse" x="0" y="-1" width="270" height="271">
<path d="M0 269.2L0 -6.86646e-05H269.2V269.2H0Z" fill="white"/>
</mask>
<g mask="url(#mask1_2028_21)">
<path d="M168.25 44.8667L110.238 102.879C95.2857 117.831 87.8042 125.313 87.8042 134.6C87.8042 143.888 95.2857 151.369 110.238 166.321L168.25 224.334" stroke="black" stroke-width="22.4334" stroke-linecap="round" stroke-linejoin="round"/>
<path d="M168.25 44.8667L110.238 102.879C95.2857 117.831 87.8042 125.313 87.8042 134.6C87.8042 143.888 95.2857 151.369 110.238 166.321L168.25 224.334" stroke="black" stroke-width="22.4334" stroke-linecap="round" stroke-linejoin="round"/>
</g>
</g>
</svg>
